<?xml version="1.0" encoding="UTF-8"?><svg id="Calque_1" xmlns="http://www.w3.org/2000/svg" viewBox="0 0 226.48 48.28"><path d="M28.41,28.06h6.77l-3.39-10.68-3.39,10.68ZM29.4,27.34l2.39-7.55,2.39,7.55h-4.79Z"/><path d="M167.2,17.44h-7.2v5.17h7.2c2.41,0,3.59-.85,3.59-2.59s-1.17-2.59-3.59-2.59ZM167.2,21.89h-6.47v-3.72h6.47c2.52,0,2.86.94,2.86,1.86s-.34,1.86-2.86,1.86Z"/><path d="M171.9,3.49h-32.04s-49.64,0-49.64,0h-10.58s-.02,0-.03,0c-.02,0-.04,0-.06,0H19.04L2.75,44.79h21.52l1.5-4.28h12.04l1.5,4.28h34.26s7.35,0,7.35,0h79.8v-8.95h7.31c8.6,0,14.64-1.36,18.45-4.15v13.1h22.4v-24.12h14.84V3.49h-51.82ZM39.83,44.06l-1.5-4.28h-13.07l-1.5,4.28H3.82L19.54,4.22h49.68c-12.25,1.96-15.15,7.52-15.15,12.33,0,7.04,4.14,11.31,25.32,12.32,6.56.39,6.56,1.25,6.56,1.53,0,1.05-2.75,1.27-5.06,1.27-4.5,0-5.33-1.1-5.54-2.18l-.06-.29h-21.86l.02.38c.24,4.68,2.35,8.33,6.29,10.84,2.7,1.72,6.32,2.93,10.81,3.64h-30.7ZM54.19,29.93h20.51c.51,1.73,2.39,2.48,6.19,2.48,4,0,5.79-.62,5.79-2,0-1.16-1.19-1.9-7.25-2.26-20.6-.99-24.63-5-24.63-11.6,0-5.63,4.31-12.33,24.82-12.33,16.07,0,25.36,4.99,26.21,14.08h-20.41c-.57-1.67-2.36-2.42-5.75-2.42-3.75,0-5.42.6-5.42,1.94,0,1.23,1.08,1.89,7.25,2.36,21.28,1.04,25.31,4.86,25.31,11.54,0,5.63-4.49,12.33-25.87,12.33-17.29,0-26.04-4.62-26.75-14.13ZM139.5,44.06h-47.74c12.76-1.96,15.78-7.52,15.78-12.33,0-7.14-4.14-11.21-25.99-12.27-5.77-.44-6.57-1.05-6.57-1.64,0-.8,1.62-1.22,4.69-1.22,4.07,0,4.88,1.15,5.13,2.15l.07.28h21.75l-.03-.39c-.3-4.4-2.52-8.08-6.43-10.63-2.77-1.8-6.37-3.07-10.76-3.79h49.78v12h-25.51v3.95h24.73v7.78h-24.73v4.01h25.84v12.11ZM168.04,35.12h-8.03v8.95h-19.78v-12.84h-25.84v-2.55h24.73v-9.23h-24.73v-2.5h25.51V4.22h28.14c16.14,0,23.03,4.58,23.03,15.31s-6.89,15.59-23.03,15.59ZM223,19.94h-14.84v24.12h-20.95v-12.94c3.08-2.61,4.58-6.41,4.58-11.59,0-8.66-4.47-13.57-14.24-15.31h45.44v15.72Z"/></svg>